<svg xmlns="http://www.w3.org/2000/svg" viewBox="0 0 288 320" width="288" height="320">
  <!-- Hermes / Heo-sajang: monochrome pixel-art office character -->
  <rect x="96" y="32" width="16" height="16" fill="#111827"/>
  <rect x="112" y="32" width="16" height="16" fill="#111827"/>
  <rect x="128" y="32" width="16" height="16" fill="#111827"/>
  <rect x="144" y="32" width="16" height="16" fill="#111827"/>
  <rect x="160" y="32" width="16" height="16" fill="#111827"/>
  <rect x="176" y="32" width="16" height="16" fill="#111827"/>
  <rect x="80" y="48" width="16" height="16" fill="#111827"/>
  <rect x="96" y="48" width="16" height="16" fill="#111827"/>
  <rect x="112" y="48" width="16" height="16" fill="#111827"/>
  <rect x="128" y="48" width="16" height="16" fill="#111827"/>
  <rect x="144" y="48" width="16" height="16" fill="#111827"/>
  <rect x="160" y="48" width="16" height="16" fill="#111827"/>
  <rect x="176" y="48" width="16" height="16" fill="#111827"/>
  <rect x="192" y="48" width="16" height="16" fill="#111827"/>
  <rect x="64" y="64" width="16" height="16" fill="#111827"/>
  <rect x="80" y="64" width="16" height="16" fill="#111827"/>
  <rect x="96" y="64" width="16" height="16" fill="#F3F4F6"/>
  <rect x="112" y="64" width="16" height="16" fill="#F3F4F6"/>
  <rect x="128" y="64" width="16" height="16" fill="#111827"/>
  <rect x="144" y="64" width="16" height="16" fill="#111827"/>
  <rect x="160" y="64" width="16" height="16" fill="#F3F4F6"/>
  <rect x="176" y="64" width="16" height="16" fill="#F3F4F6"/>
  <rect x="192" y="64" width="16" height="16" fill="#111827"/>
  <rect x="208" y="64" width="16" height="16" fill="#111827"/>
  <rect x="64" y="80" width="16" height="16" fill="#111827"/>
  <rect x="80" y="80" width="16" height="16" fill="#F8D5B8"/>
  <rect x="96" y="80" width="16" height="16" fill="#F8D5B8"/>
  <rect x="112" y="80" width="16" height="16" fill="#111827"/>
  <rect x="128" y="80" width="16" height="16" fill="#F8D5B8"/>
  <rect x="144" y="80" width="16" height="16" fill="#F8D5B8"/>
  <rect x="160" y="80" width="16" height="16" fill="#111827"/>
  <rect x="176" y="80" width="16" height="16" fill="#F8D5B8"/>
  <rect x="192" y="80" width="16" height="16" fill="#F8D5B8"/>
  <rect x="208" y="80" width="16" height="16" fill="#111827"/>
  <rect x="80" y="96" width="16" height="16" fill="#F8D5B8"/>
  <rect x="96" y="96" width="16" height="16" fill="#F8D5B8"/>
  <rect x="112" y="96" width="16" height="16" fill="#F8D5B8"/>
  <rect x="128" y="96" width="16" height="16" fill="#F8D5B8"/>
  <rect x="144" y="96" width="16" height="16" fill="#F8D5B8"/>
  <rect x="160" y="96" width="16" height="16" fill="#F8D5B8"/>
  <rect x="176" y="96" width="16" height="16" fill="#F8D5B8"/>
  <rect x="192" y="96" width="16" height="16" fill="#F8D5B8"/>
  <rect x="96" y="112" width="16" height="16" fill="#F8D5B8"/>
  <rect x="112" y="112" width="16" height="16" fill="#F8D5B8"/>
  <rect x="128" y="112" width="16" height="16" fill="#E8B897"/>
  <rect x="144" y="112" width="16" height="16" fill="#E8B897"/>
  <rect x="160" y="112" width="16" height="16" fill="#F8D5B8"/>
  <rect x="176" y="112" width="16" height="16" fill="#F8D5B8"/>
  <!-- body suit -->
  <rect x="80" y="144" width="16" height="16" fill="#FFFFFF"/>
  <rect x="96" y="144" width="16" height="16" fill="#FFFFFF"/>
  <rect x="112" y="144" width="16" height="16" fill="#111827"/>
  <rect x="128" y="144" width="16" height="16" fill="#111827"/>
  <rect x="144" y="144" width="16" height="16" fill="#111827"/>
  <rect x="160" y="144" width="16" height="16" fill="#111827"/>
  <rect x="176" y="144" width="16" height="16" fill="#FFFFFF"/>
  <rect x="192" y="144" width="16" height="16" fill="#FFFFFF"/>
  <rect x="64" y="160" width="16" height="16" fill="#FFFFFF"/>
  <rect x="80" y="160" width="16" height="16" fill="#FFFFFF"/>
  <rect x="96" y="160" width="16" height="16" fill="#111827"/>
  <rect x="112" y="160" width="16" height="16" fill="#FFFFFF"/>
  <rect x="128" y="160" width="16" height="16" fill="#111827"/>
  <rect x="144" y="160" width="16" height="16" fill="#111827"/>
  <rect x="160" y="160" width="16" height="16" fill="#FFFFFF"/>
  <rect x="176" y="160" width="16" height="16" fill="#111827"/>
  <rect x="192" y="160" width="16" height="16" fill="#FFFFFF"/>
  <rect x="208" y="160" width="16" height="16" fill="#FFFFFF"/>
  <rect x="64" y="176" width="16" height="16" fill="#111827"/>
  <rect x="80" y="176" width="16" height="16" fill="#111827"/>
  <rect x="96" y="176" width="16" height="16" fill="#FFFFFF"/>
  <rect x="112" y="176" width="16" height="16" fill="#FFFFFF"/>
  <rect x="128" y="176" width="16" height="16" fill="#FFFFFF"/>
  <rect x="144" y="176" width="16" height="16" fill="#FFFFFF"/>
  <rect x="160" y="176" width="16" height="16" fill="#FFFFFF"/>
  <rect x="176" y="176" width="16" height="16" fill="#FFFFFF"/>
  <rect x="192" y="176" width="16" height="16" fill="#111827"/>
  <rect x="208" y="176" width="16" height="16" fill="#111827"/>
  <rect x="96" y="192" width="16" height="16" fill="#111827"/>
  <rect x="112" y="192" width="16" height="16" fill="#111827"/>
  <rect x="128" y="192" width="16" height="16" fill="#FFFFFF"/>
  <rect x="144" y="192" width="16" height="16" fill="#FFFFFF"/>
  <rect x="160" y="192" width="16" height="16" fill="#111827"/>
  <rect x="176" y="192" width="16" height="16" fill="#111827"/>
  <rect x="96" y="208" width="16" height="16" fill="#111827"/>
  <rect x="112" y="208" width="16" height="16" fill="#111827"/>
  <rect x="160" y="208" width="16" height="16" fill="#111827"/>
  <rect x="176" y="208" width="16" height="16" fill="#111827"/>
  <rect x="80" y="224" width="16" height="16" fill="#111827"/>
  <rect x="96" y="224" width="16" height="16" fill="#111827"/>
  <rect x="176" y="224" width="16" height="16" fill="#111827"/>
  <rect x="192" y="224" width="16" height="16" fill="#111827"/>
  <rect x="64" y="240" width="48" height="16" fill="#F3F4F6"/>
  <rect x="176" y="240" width="48" height="16" fill="#F3F4F6"/>
  <text x="144" y="292" font-family="monospace" font-size="24" text-anchor="middle" fill="#F9FAFB">허사장</text>
</svg>
