<svg xmlns="http://www.w3.org/2000/svg" viewBox="0 0 288 304" width="288" height="304">
  <rect width="288" height="304" fill="#1a1a2e" rx="8"/>
  <rect x="96" y="80" width="16" height="16" fill="#5C6BC0"/>
  <rect x="112" y="80" width="16" height="16" fill="#5C6BC0"/>
  <rect x="128" y="80" width="16" height="16" fill="#5C6BC0"/>
  <rect x="144" y="80" width="16" height="16" fill="#5C6BC0"/>
  <rect x="160" y="80" width="16" height="16" fill="#5C6BC0"/>
  <rect x="176" y="80" width="16" height="16" fill="#5C6BC0"/>
  <rect x="80" y="96" width="16" height="16" fill="#5C6BC0"/>
  <rect x="96" y="96" width="16" height="16" fill="#5C6BC0"/>
  <rect x="112" y="96" width="16" height="16" fill="#5C6BC0"/>
  <rect x="128" y="96" width="16" height="16" fill="#5C6BC0"/>
  <rect x="144" y="96" width="16" height="16" fill="#5C6BC0"/>
  <rect x="160" y="96" width="16" height="16" fill="#5C6BC0"/>
  <rect x="176" y="96" width="16" height="16" fill="#5C6BC0"/>
  <rect x="192" y="96" width="16" height="16" fill="#5C6BC0"/>
  <rect x="64" y="112" width="16" height="16" fill="#5C6BC0"/>
  <rect x="80" y="112" width="16" height="16" fill="#5C6BC0"/>
  <rect x="96" y="112" width="16" height="16" fill="#9FA8DA"/>
  <rect x="112" y="112" width="16" height="16" fill="#9FA8DA"/>
  <rect x="128" y="112" width="16" height="16" fill="#5C6BC0"/>
  <rect x="144" y="112" width="16" height="16" fill="#5C6BC0"/>
  <rect x="160" y="112" width="16" height="16" fill="#9FA8DA"/>
  <rect x="176" y="112" width="16" height="16" fill="#9FA8DA"/>
  <rect x="192" y="112" width="16" height="16" fill="#5C6BC0"/>
  <rect x="208" y="112" width="16" height="16" fill="#5C6BC0"/>
  <rect x="64" y="128" width="16" height="16" fill="#5C6BC0"/>
  <rect x="80" y="128" width="16" height="16" fill="#5C6BC0"/>
  <rect x="96" y="128" width="16" height="16" fill="#1A237E"/>
  <rect x="112" y="128" width="16" height="16" fill="#FFFFFF"/>
  <rect x="128" y="128" width="16" height="16" fill="#5C6BC0"/>
  <rect x="144" y="128" width="16" height="16" fill="#5C6BC0"/>
  <rect x="160" y="128" width="16" height="16" fill="#1A237E"/>
  <rect x="176" y="128" width="16" height="16" fill="#FFFFFF"/>
  <rect x="192" y="128" width="16" height="16" fill="#5C6BC0"/>
  <rect x="208" y="128" width="16" height="16" fill="#5C6BC0"/>
  <rect x="64" y="144" width="16" height="16" fill="#5C6BC0"/>
  <rect x="80" y="144" width="16" height="16" fill="#5C6BC0"/>
  <rect x="96" y="144" width="16" height="16" fill="#1A237E"/>
  <rect x="112" y="144" width="16" height="16" fill="#1A237E"/>
  <rect x="128" y="144" width="16" height="16" fill="#5C6BC0"/>
  <rect x="144" y="144" width="16" height="16" fill="#5C6BC0"/>
  <rect x="160" y="144" width="16" height="16" fill="#1A237E"/>
  <rect x="176" y="144" width="16" height="16" fill="#1A237E"/>
  <rect x="192" y="144" width="16" height="16" fill="#5C6BC0"/>
  <rect x="208" y="144" width="16" height="16" fill="#5C6BC0"/>
  <rect x="64" y="160" width="16" height="16" fill="#5C6BC0"/>
  <rect x="80" y="160" width="16" height="16" fill="#5C6BC0"/>
  <rect x="96" y="160" width="16" height="16" fill="#5C6BC0"/>
  <rect x="112" y="160" width="16" height="16" fill="#5C6BC0"/>
  <rect x="128" y="160" width="16" height="16" fill="#5C6BC0"/>
  <rect x="144" y="160" width="16" height="16" fill="#5C6BC0"/>
  <rect x="160" y="160" width="16" height="16" fill="#5C6BC0"/>
  <rect x="176" y="160" width="16" height="16" fill="#5C6BC0"/>
  <rect x="192" y="160" width="16" height="16" fill="#5C6BC0"/>
  <rect x="208" y="160" width="16" height="16" fill="#5C6BC0"/>
  <rect x="80" y="176" width="16" height="16" fill="#5C6BC0"/>
  <rect x="96" y="176" width="16" height="16" fill="#5C6BC0"/>
  <rect x="112" y="176" width="16" height="16" fill="#5C6BC0"/>
  <rect x="128" y="176" width="16" height="16" fill="#1A237E"/>
  <rect x="144" y="176" width="16" height="16" fill="#5C6BC0"/>
  <rect x="160" y="176" width="16" height="16" fill="#5C6BC0"/>
  <rect x="176" y="176" width="16" height="16" fill="#5C6BC0"/>
  <rect x="192" y="176" width="16" height="16" fill="#5C6BC0"/>
  <rect x="96" y="192" width="16" height="16" fill="#3949AB"/>
  <rect x="112" y="192" width="16" height="16" fill="#5C6BC0"/>
  <rect x="128" y="192" width="16" height="16" fill="#5C6BC0"/>
  <rect x="144" y="192" width="16" height="16" fill="#5C6BC0"/>
  <rect x="160" y="192" width="16" height="16" fill="#5C6BC0"/>
  <rect x="176" y="192" width="16" height="16" fill="#3949AB"/>
  <rect x="96" y="208" width="16" height="16" fill="#3949AB"/>
  <rect x="112" y="208" width="16" height="16" fill="#5C6BC0"/>
  <rect x="128" y="208" width="16" height="16" fill="#9FA8DA"/>
  <rect x="144" y="208" width="16" height="16" fill="#9FA8DA"/>
  <rect x="160" y="208" width="16" height="16" fill="#5C6BC0"/>
  <rect x="176" y="208" width="16" height="16" fill="#3949AB"/>
  <rect x="96" y="224" width="16" height="16" fill="#3949AB"/>
  <rect x="112" y="224" width="16" height="16" fill="#5C6BC0"/>
  <rect x="128" y="224" width="16" height="16" fill="#5C6BC0"/>
  <rect x="144" y="224" width="16" height="16" fill="#5C6BC0"/>
  <rect x="160" y="224" width="16" height="16" fill="#5C6BC0"/>
  <rect x="176" y="224" width="16" height="16" fill="#3949AB"/>
  <rect x="112" y="240" width="16" height="16" fill="#5C6BC0"/>
  <rect x="160" y="240" width="16" height="16" fill="#5C6BC0"/>
  <rect x="112" y="256" width="16" height="16" fill="#3949AB"/>
  <rect x="160" y="256" width="16" height="16" fill="#3949AB"/>
</svg>