<svg xmlns="http://www.w3.org/2000/svg" viewBox="0 0 288 320" width="288" height="320">
  <rect width="288" height="320" fill="#1a1a2e" rx="8"/>
  <rect x="80" y="32" width="16" height="16" fill="#D4764E"/>
  <rect x="96" y="32" width="16" height="16" fill="#D4764E"/>
  <rect x="192" y="32" width="16" height="16" fill="#D4764E"/>
  <rect x="208" y="32" width="16" height="16" fill="#D4764E"/>
  <rect x="64" y="48" width="16" height="16" fill="#D4764E"/>
  <rect x="80" y="48" width="16" height="16" fill="#D4764E"/>
  <rect x="96" y="48" width="16" height="16" fill="#D4764E"/>
  <rect x="176" y="48" width="16" height="16" fill="#D4764E"/>
  <rect x="192" y="48" width="16" height="16" fill="#D4764E"/>
  <rect x="208" y="48" width="16" height="16" fill="#D4764E"/>
  <rect x="64" y="64" width="16" height="16" fill="#D4764E"/>
  <rect x="80" y="64" width="16" height="16" fill="#D4764E"/>
  <rect x="96" y="64" width="16" height="16" fill="#D4764E"/>
  <rect x="112" y="64" width="16" height="16" fill="#D4764E"/>
  <rect x="128" y="64" width="16" height="16" fill="#D4764E"/>
  <rect x="144" y="64" width="16" height="16" fill="#D4764E"/>
  <rect x="160" y="64" width="16" height="16" fill="#D4764E"/>
  <rect x="176" y="64" width="16" height="16" fill="#D4764E"/>
  <rect x="192" y="64" width="16" height="16" fill="#D4764E"/>
  <rect x="208" y="64" width="16" height="16" fill="#D4764E"/>
  <rect x="48" y="80" width="16" height="16" fill="#D4764E"/>
  <rect x="64" y="80" width="16" height="16" fill="#D4764E"/>
  <rect x="80" y="80" width="16" height="16" fill="#D4764E"/>
  <rect x="96" y="80" width="16" height="16" fill="#D4764E"/>
  <rect x="112" y="80" width="16" height="16" fill="#D4764E"/>
  <rect x="128" y="80" width="16" height="16" fill="#D4764E"/>
  <rect x="144" y="80" width="16" height="16" fill="#D4764E"/>
  <rect x="160" y="80" width="16" height="16" fill="#D4764E"/>
  <rect x="176" y="80" width="16" height="16" fill="#D4764E"/>
  <rect x="192" y="80" width="16" height="16" fill="#D4764E"/>
  <rect x="208" y="80" width="16" height="16" fill="#D4764E"/>
  <rect x="224" y="80" width="16" height="16" fill="#D4764E"/>
  <rect x="48" y="96" width="16" height="16" fill="#D4764E"/>
  <rect x="64" y="96" width="16" height="16" fill="#D4764E"/>
  <rect x="80" y="96" width="16" height="16" fill="#E8A07A"/>
  <rect x="96" y="96" width="16" height="16" fill="#E8A07A"/>
  <rect x="112" y="96" width="16" height="16" fill="#D4764E"/>
  <rect x="128" y="96" width="16" height="16" fill="#D4764E"/>
  <rect x="144" y="96" width="16" height="16" fill="#D4764E"/>
  <rect x="160" y="96" width="16" height="16" fill="#D4764E"/>
  <rect x="176" y="96" width="16" height="16" fill="#E8A07A"/>
  <rect x="192" y="96" width="16" height="16" fill="#E8A07A"/>
  <rect x="208" y="96" width="16" height="16" fill="#D4764E"/>
  <rect x="224" y="96" width="16" height="16" fill="#D4764E"/>
  <rect x="48" y="112" width="16" height="16" fill="#D4764E"/>
  <rect x="64" y="112" width="16" height="16" fill="#D4764E"/>
  <rect x="80" y="112" width="16" height="16" fill="#2D1B12"/>
  <rect x="96" y="112" width="16" height="16" fill="#2D1B12"/>
  <rect x="112" y="112" width="16" height="16" fill="#D4764E"/>
  <rect x="128" y="112" width="16" height="16" fill="#D4764E"/>
  <rect x="144" y="112" width="16" height="16" fill="#D4764E"/>
  <rect x="160" y="112" width="16" height="16" fill="#D4764E"/>
  <rect x="176" y="112" width="16" height="16" fill="#2D1B12"/>
  <rect x="192" y="112" width="16" height="16" fill="#2D1B12"/>
  <rect x="208" y="112" width="16" height="16" fill="#D4764E"/>
  <rect x="224" y="112" width="16" height="16" fill="#D4764E"/>
  <rect x="48" y="128" width="16" height="16" fill="#D4764E"/>
  <rect x="64" y="128" width="16" height="16" fill="#D4764E"/>
  <rect x="80" y="128" width="16" height="16" fill="#2D1B12"/>
  <rect x="96" y="128" width="16" height="16" fill="#FFFFFF"/>
  <rect x="112" y="128" width="16" height="16" fill="#D4764E"/>
  <rect x="128" y="128" width="16" height="16" fill="#D4764E"/>
  <rect x="144" y="128" width="16" height="16" fill="#D4764E"/>
  <rect x="160" y="128" width="16" height="16" fill="#D4764E"/>
  <rect x="176" y="128" width="16" height="16" fill="#2D1B12"/>
  <rect x="192" y="128" width="16" height="16" fill="#FFFFFF"/>
  <rect x="208" y="128" width="16" height="16" fill="#D4764E"/>
  <rect x="224" y="128" width="16" height="16" fill="#D4764E"/>
  <rect x="48" y="144" width="16" height="16" fill="#D4764E"/>
  <rect x="64" y="144" width="16" height="16" fill="#D4764E"/>
  <rect x="80" y="144" width="16" height="16" fill="#D4764E"/>
  <rect x="96" y="144" width="16" height="16" fill="#D4764E"/>
  <rect x="112" y="144" width="16" height="16" fill="#D4764E"/>
  <rect x="128" y="144" width="16" height="16" fill="#D4764E"/>
  <rect x="144" y="144" width="16" height="16" fill="#D4764E"/>
  <rect x="160" y="144" width="16" height="16" fill="#D4764E"/>
  <rect x="176" y="144" width="16" height="16" fill="#D4764E"/>
  <rect x="192" y="144" width="16" height="16" fill="#D4764E"/>
  <rect x="208" y="144" width="16" height="16" fill="#D4764E"/>
  <rect x="224" y="144" width="16" height="16" fill="#D4764E"/>
  <rect x="48" y="160" width="16" height="16" fill="#D4764E"/>
  <rect x="64" y="160" width="16" height="16" fill="#D4764E"/>
  <rect x="80" y="160" width="16" height="16" fill="#D4764E"/>
  <rect x="96" y="160" width="16" height="16" fill="#D4764E"/>
  <rect x="112" y="160" width="16" height="16" fill="#D4764E"/>
  <rect x="128" y="160" width="16" height="16" fill="#2D1B12"/>
  <rect x="144" y="160" width="16" height="16" fill="#2D1B12"/>
  <rect x="160" y="160" width="16" height="16" fill="#D4764E"/>
  <rect x="176" y="160" width="16" height="16" fill="#D4764E"/>
  <rect x="192" y="160" width="16" height="16" fill="#D4764E"/>
  <rect x="208" y="160" width="16" height="16" fill="#D4764E"/>
  <rect x="224" y="160" width="16" height="16" fill="#D4764E"/>
  <rect x="64" y="176" width="16" height="16" fill="#D4764E"/>
  <rect x="80" y="176" width="16" height="16" fill="#D4764E"/>
  <rect x="96" y="176" width="16" height="16" fill="#D4764E"/>
  <rect x="112" y="176" width="16" height="16" fill="#D4764E"/>
  <rect x="128" y="176" width="16" height="16" fill="#D4764E"/>
  <rect x="144" y="176" width="16" height="16" fill="#D4764E"/>
  <rect x="160" y="176" width="16" height="16" fill="#D4764E"/>
  <rect x="176" y="176" width="16" height="16" fill="#D4764E"/>
  <rect x="192" y="176" width="16" height="16" fill="#D4764E"/>
  <rect x="208" y="176" width="16" height="16" fill="#D4764E"/>
  <rect x="80" y="192" width="16" height="16" fill="#B5573A"/>
  <rect x="96" y="192" width="16" height="16" fill="#D4764E"/>
  <rect x="112" y="192" width="16" height="16" fill="#D4764E"/>
  <rect x="128" y="192" width="16" height="16" fill="#C0392B"/>
  <rect x="144" y="192" width="16" height="16" fill="#D4764E"/>
  <rect x="160" y="192" width="16" height="16" fill="#D4764E"/>
  <rect x="176" y="192" width="16" height="16" fill="#D4764E"/>
  <rect x="192" y="192" width="16" height="16" fill="#B5573A"/>
  <rect x="80" y="208" width="16" height="16" fill="#B5573A"/>
  <rect x="96" y="208" width="16" height="16" fill="#D4764E"/>
  <rect x="112" y="208" width="16" height="16" fill="#D4764E"/>
  <rect x="128" y="208" width="16" height="16" fill="#C0392B"/>
  <rect x="144" y="208" width="16" height="16" fill="#D4764E"/>
  <rect x="160" y="208" width="16" height="16" fill="#D4764E"/>
  <rect x="176" y="208" width="16" height="16" fill="#D4764E"/>
  <rect x="192" y="208" width="16" height="16" fill="#B5573A"/>
  <rect x="80" y="224" width="16" height="16" fill="#B5573A"/>
  <rect x="96" y="224" width="16" height="16" fill="#D4764E"/>
  <rect x="112" y="224" width="16" height="16" fill="#D4764E"/>
  <rect x="128" y="224" width="16" height="16" fill="#D4764E"/>
  <rect x="144" y="224" width="16" height="16" fill="#D4764E"/>
  <rect x="160" y="224" width="16" height="16" fill="#D4764E"/>
  <rect x="176" y="224" width="16" height="16" fill="#D4764E"/>
  <rect x="192" y="224" width="16" height="16" fill="#B5573A"/>
  <rect x="80" y="240" width="16" height="16" fill="#B5573A"/>
  <rect x="96" y="240" width="16" height="16" fill="#D4764E"/>
  <rect x="112" y="240" width="16" height="16" fill="#D4764E"/>
  <rect x="128" y="240" width="16" height="16" fill="#D4764E"/>
  <rect x="144" y="240" width="16" height="16" fill="#D4764E"/>
  <rect x="160" y="240" width="16" height="16" fill="#D4764E"/>
  <rect x="176" y="240" width="16" height="16" fill="#D4764E"/>
  <rect x="192" y="240" width="16" height="16" fill="#B5573A"/>
  <rect x="96" y="256" width="16" height="16" fill="#D4764E"/>
  <rect x="112" y="256" width="16" height="16" fill="#D4764E"/>
  <rect x="160" y="256" width="16" height="16" fill="#D4764E"/>
  <rect x="176" y="256" width="16" height="16" fill="#D4764E"/>
  <rect x="96" y="272" width="16" height="16" fill="#B5573A"/>
  <rect x="112" y="272" width="16" height="16" fill="#B5573A"/>
  <rect x="160" y="272" width="16" height="16" fill="#B5573A"/>
  <rect x="176" y="272" width="16" height="16" fill="#B5573A"/>
</svg>